<svg xmlns="http://www.w3.org/2000/svg" xmlns:xlink="http://www.w3.org/1999/xlink" width="1080" zoomAndPan="magnify" viewBox="0 0 810 104.999996" height="140" preserveAspectRatio="xMidYMid meet" version="1.0"><defs><g/><clipPath id="14bf622af4"><path d="M 13.535156 14 L 105.035156 14 L 105.035156 105 L 13.535156 105 Z M 13.535156 14 " clip-rule="nonzero"/></clipPath></defs><g fill="#ffffff" fill-opacity="1"><g transform="translate(115.849408, 84.245587)"><g><path d="M 62.640625 0 L 62.640625 -34.1875 L 17.09375 -34.1875 L 17.09375 -45.546875 L 62.640625 -45.546875 L 62.640625 -57 L 5.71875 -57 L 5.71875 -22.8125 L 51.265625 -22.8125 L 51.265625 -11.359375 L 5.71875 -11.359375 L 5.71875 0 Z M 62.640625 0 "/></g></g></g><g fill="#ffffff" fill-opacity="1"><g transform="translate(184.213122, 84.245587)"><g><path d="M 62.640625 -22.8125 L 62.640625 -57 L 5.71875 -57 L 5.71875 0 L 17.09375 0 L 17.09375 -22.8125 Z M 51.265625 -34.1875 L 17.09375 -34.1875 L 17.09375 -45.546875 L 51.265625 -45.546875 Z M 51.265625 -34.1875 "/></g></g></g><g fill="#ffffff" fill-opacity="1"><g transform="translate(252.576836, 84.245587)"><g><path d="M 62.640625 0 L 62.640625 -57 L 5.71875 -57 L 5.71875 0 L 17.09375 0 L 17.09375 -22.8125 L 51.265625 -22.8125 L 51.265625 0 Z M 51.265625 -34.1875 L 17.09375 -34.1875 L 17.09375 -45.546875 L 51.265625 -45.546875 Z M 51.265625 -34.1875 "/></g></g></g><g fill="#ffffff" fill-opacity="1"><g transform="translate(320.94055, 84.245587)"><g><path d="M 62.640625 0 L 62.640625 -11.359375 L 17.09375 -11.359375 L 17.09375 -45.546875 L 62.640625 -45.546875 L 62.640625 -57 L 5.71875 -57 L 5.71875 0 Z M 62.640625 0 "/></g></g></g><g fill="#ffffff" fill-opacity="1"><g transform="translate(389.304264, 84.245587)"><g><path d="M 62.640625 0 L 62.640625 -11.359375 L 17.09375 -11.359375 L 17.09375 -22.8125 L 62.640625 -22.8125 L 62.640625 -34.1875 L 17.09375 -34.1875 L 17.09375 -45.546875 L 62.640625 -45.546875 L 62.640625 -57 L 5.71875 -57 L 5.71875 0 Z M 62.640625 0 "/></g></g></g><g fill="#ffffff" fill-opacity="1"><g transform="translate(457.667978, 84.245587)"><g><path d="M 62.640625 0 L 62.640625 -11.359375 L 17.09375 -11.359375 L 17.09375 -45.546875 L 62.640625 -45.546875 L 62.640625 -57 L 5.71875 -57 L 5.71875 0 Z M 62.640625 0 "/></g></g></g><g fill="#ffffff" fill-opacity="1"><g transform="translate(526.031693, 84.245587)"><g><path d="M 62.640625 -22.8125 L 62.640625 -57 L 5.71875 -57 L 5.71875 0 L 17.09375 0 L 17.09375 -22.8125 L 39.90625 -22.8125 L 39.90625 0 L 51.265625 0 L 51.265625 -22.8125 Z M 51.265625 -34.1875 L 17.09375 -34.1875 L 17.09375 -45.546875 L 51.265625 -45.546875 Z M 51.265625 -34.1875 "/></g></g></g><g fill="#ffffff" fill-opacity="1"><g transform="translate(594.395407, 84.245587)"><g><path d="M 62.640625 0 L 62.640625 -57 L 5.71875 -57 L 5.71875 0 L 17.09375 0 L 17.09375 -22.8125 L 51.265625 -22.8125 L 51.265625 0 Z M 51.265625 -34.1875 L 17.09375 -34.1875 L 17.09375 -45.546875 L 51.265625 -45.546875 Z M 51.265625 -34.1875 "/></g></g></g><g fill="#ffffff" fill-opacity="1"><g transform="translate(662.759121, 84.245587)"><g><path d="M 62.640625 -22.8125 L 62.640625 -34.1875 L 17.09375 -34.1875 L 17.09375 -45.546875 L 62.640625 -45.546875 L 62.640625 -57 L 5.71875 -57 L 5.71875 0 L 17.09375 0 L 17.09375 -22.8125 Z M 62.640625 -22.8125 "/></g></g></g><g fill="#ffffff" fill-opacity="1"><g transform="translate(731.122835, 84.245587)"><g><path d="M 62.640625 -45.546875 L 62.640625 -57 L 5.71875 -57 L 5.71875 -45.546875 L 28.453125 -45.546875 L 28.453125 0 L 39.90625 0 L 39.90625 -45.546875 Z M 62.640625 -45.546875 "/></g></g></g><path fill="#ffffff" d="M 59.316406 0.0351562 L 59.210938 0.128906 C 49.746094 8.46875 48.25 20.535156 54.734375 36.339844 L 63.894531 36.339844 C 70.378906 20.535156 68.882812 8.46875 59.417969 0.128906 Z M 59.316406 13.488281 C 62.050781 13.488281 64.269531 15.710938 64.269531 18.441406 C 64.269531 21.175781 62.050781 23.394531 59.316406 23.394531 C 56.585938 23.394531 54.367188 21.175781 54.367188 18.441406 C 54.367188 15.710938 56.585938 13.488281 59.316406 13.488281 Z M 68.375 24.574219 L 74.980469 32.078125 L 66.9375 50.078125 L 65.136719 36.578125 C 67.175781 31.378906 68.25 27.375 68.375 24.574219 Z M 50.265625 24.574219 C 50.382812 27.375 51.464844 31.378906 53.503906 36.574219 L 51.703125 50.070312 L 43.664062 32.078125 Z M 50.265625 24.574219 " fill-opacity="1" fill-rule="evenodd"/><path fill="#ffffff" d="M 54.734375 37.214844 L 63.902344 37.214844 L 63.902344 38.59375 L 54.734375 38.59375 Z M 54.734375 37.214844 " fill-opacity="1" fill-rule="evenodd"/><path fill="#ffffff" d="M 56.308594 39.042969 L 62.324219 39.042969 L 62.324219 41.40625 L 56.308594 41.40625 Z M 56.308594 39.042969 " fill-opacity="1" fill-rule="evenodd"/><g clip-path="url(#14bf622af4)"><path fill="#ffffff" d="M 69.972656 18.109375 C 88.226562 22.835938 101.71875 39.421875 101.71875 59.160156 C 101.71875 63.5625 101.050781 67.808594 99.804688 71.796875 C 98.425781 72.308594 97.167969 73.515625 96.261719 74.792969 C 95.441406 73.617188 94.078125 72.839844 92.535156 72.839844 C 90.027344 72.839844 87.996094 74.875 87.996094 77.378906 C 87.996094 77.675781 88.019531 77.960938 88.078125 78.238281 C 87.144531 77.53125 85.984375 77.105469 84.71875 77.105469 C 82.429688 77.105469 80.460938 78.488281 79.613281 80.46875 C 79.117188 80.332031 78.597656 80.257812 78.0625 80.257812 C 75.484375 80.257812 73.296875 81.957031 72.570312 84.296875 C 72.316406 84.265625 72.058594 84.25 71.789062 84.25 C 69.851562 84.25 68.09375 85.058594 66.851562 86.351562 C 66.875 87.175781 67.421875 88.527344 68.484375 90.398438 C 60.957031 81.851562 61.667969 54.011719 60.792969 43.53125 L 57.855469 43.53125 C 56.980469 54.011719 57.691406 81.851562 50.164062 90.398438 C 51.226562 88.527344 51.769531 87.175781 51.796875 86.351562 C 50.546875 85.058594 48.796875 84.25 46.855469 84.25 C 46.59375 84.25 46.332031 84.265625 46.082031 84.296875 C 45.355469 81.957031 43.175781 80.257812 40.59375 80.257812 C 40.054688 80.257812 39.535156 80.332031 39.042969 80.46875 C 38.191406 78.492188 36.222656 77.105469 33.933594 77.105469 C 32.671875 77.105469 31.507812 77.523438 30.578125 78.238281 C 30.625 77.960938 30.65625 77.675781 30.65625 77.378906 C 30.65625 74.875 28.625 72.839844 26.117188 72.839844 C 24.574219 72.839844 23.210938 73.609375 22.394531 74.792969 C 21.484375 73.523438 20.222656 72.308594 18.847656 71.796875 C 17.605469 67.808594 16.933594 63.5625 16.933594 59.160156 C 16.933594 39.429688 30.425781 22.835938 48.683594 18.109375 C 48.714844 16.902344 48.808594 15.710938 48.984375 14.535156 C 28.675781 19.230469 13.535156 37.429688 13.535156 59.160156 C 13.535156 84.453125 34.046875 104.964844 59.335938 104.964844 C 84.625 104.964844 105.140625 84.453125 105.140625 59.160156 C 105.140625 37.429688 89.996094 19.230469 69.691406 14.535156 C 69.847656 15.714844 69.941406 16.910156 69.972656 18.109375 Z M 69.972656 18.109375 " fill-opacity="1" fill-rule="evenodd"/></g><path fill="#ffffff" d="M 47.921875 73.484375 C 47.765625 75.304688 46.882812 76.25 45.277344 76.335938 C 46.882812 76.417969 47.765625 77.367188 47.921875 79.1875 L 47.921875 79.511719 L 47.933594 79.316406 L 47.945312 79.511719 L 47.945312 79.1875 C 48.101562 77.367188 48.984375 76.421875 50.589844 76.335938 C 48.984375 76.253906 48.101562 75.304688 47.945312 73.484375 L 47.945312 73.167969 L 47.933594 73.359375 L 47.921875 73.167969 Z M 47.921875 73.484375 " fill-opacity="1" fill-rule="evenodd"/><path fill="#ffffff" d="M 43.195312 57.523438 C 43.039062 59.34375 42.15625 60.292969 40.550781 60.375 C 42.15625 60.457031 43.039062 61.40625 43.195312 63.226562 L 43.195312 63.550781 L 43.207031 63.355469 L 43.21875 63.550781 L 43.21875 63.226562 C 43.375 61.40625 44.257812 60.457031 45.863281 60.375 C 44.257812 60.292969 43.375 59.34375 43.21875 57.523438 L 43.21875 57.203125 L 43.207031 57.398438 L 43.195312 57.203125 Z M 43.195312 57.523438 " fill-opacity="1" fill-rule="evenodd"/><path fill="#ffffff" d="M 28.613281 48.464844 C 28.457031 50.285156 27.574219 51.226562 25.96875 51.316406 C 27.574219 51.398438 28.457031 52.347656 28.613281 54.167969 L 28.613281 54.492188 L 28.625 54.296875 L 28.640625 54.492188 L 28.640625 54.167969 C 28.796875 52.347656 29.675781 51.402344 31.285156 51.316406 C 29.675781 51.234375 28.796875 50.285156 28.640625 48.464844 L 28.640625 48.144531 L 28.625 48.339844 L 28.613281 48.144531 Z M 28.613281 48.464844 " fill-opacity="1" fill-rule="evenodd"/><path fill="#ffffff" d="M 38.523438 37.679688 C 38.367188 39.5 37.484375 40.449219 35.878906 40.53125 C 37.484375 40.613281 38.367188 41.5625 38.523438 43.382812 L 38.523438 43.707031 L 38.53125 43.511719 L 38.542969 43.707031 L 38.542969 43.382812 C 38.699219 41.5625 39.578125 40.617188 41.1875 40.53125 C 39.578125 40.449219 38.699219 39.5 38.542969 37.679688 L 38.542969 37.359375 L 38.53125 37.554688 L 38.523438 37.359375 Z M 38.523438 37.679688 " fill-opacity="1" fill-rule="evenodd"/><path fill="#ffffff" d="M 31.828125 63.886719 C 31.671875 65.707031 30.789062 66.652344 29.183594 66.738281 C 30.789062 66.820312 31.671875 67.769531 31.828125 69.589844 L 31.828125 69.914062 L 31.839844 69.722656 L 31.851562 69.914062 L 31.851562 69.589844 C 32.007812 67.769531 32.890625 66.828125 34.496094 66.738281 C 32.890625 66.65625 32.007812 65.707031 31.851562 63.886719 L 31.851562 63.570312 L 31.839844 63.761719 L 31.828125 63.570312 Z M 31.828125 63.886719 " fill-opacity="1" fill-rule="evenodd"/><path fill="#ffffff" d="M 69.871094 73.484375 C 70.027344 75.304688 70.910156 76.25 72.515625 76.335938 C 70.910156 76.417969 70.027344 77.367188 69.871094 79.1875 L 69.871094 79.511719 L 69.859375 79.316406 L 69.847656 79.511719 L 69.847656 79.1875 C 69.691406 77.367188 68.808594 76.421875 67.203125 76.335938 C 68.808594 76.253906 69.691406 75.304688 69.847656 73.484375 L 69.847656 73.167969 L 69.859375 73.359375 L 69.871094 73.167969 Z M 69.871094 73.484375 " fill-opacity="1" fill-rule="evenodd"/><path fill="#ffffff" d="M 74.605469 57.523438 C 74.761719 59.34375 75.640625 60.292969 77.25 60.375 C 75.640625 60.457031 74.761719 61.40625 74.605469 63.226562 L 74.605469 63.550781 L 74.589844 63.355469 L 74.578125 63.550781 L 74.578125 63.226562 C 74.421875 61.40625 73.542969 60.457031 71.933594 60.375 C 73.542969 60.292969 74.421875 59.34375 74.578125 57.523438 L 74.578125 57.203125 L 74.589844 57.398438 L 74.605469 57.203125 Z M 74.605469 57.523438 " fill-opacity="1" fill-rule="evenodd"/><path fill="#ffffff" d="M 89.183594 48.464844 C 89.339844 50.285156 90.222656 51.226562 91.828125 51.316406 C 90.222656 51.398438 89.339844 52.347656 89.183594 54.167969 L 89.183594 54.492188 L 89.171875 54.296875 L 89.160156 54.492188 L 89.160156 54.167969 C 89.003906 52.347656 88.121094 51.402344 86.515625 51.316406 C 88.121094 51.234375 89.003906 50.285156 89.160156 48.464844 L 89.160156 48.144531 L 89.171875 48.339844 L 89.183594 48.144531 Z M 89.183594 48.464844 " fill-opacity="1" fill-rule="evenodd"/><path fill="#ffffff" d="M 79.269531 37.679688 C 79.425781 39.5 80.304688 40.449219 81.914062 40.53125 C 80.304688 40.613281 79.425781 41.5625 79.269531 43.382812 L 79.269531 43.707031 L 79.261719 43.511719 L 79.25 43.707031 L 79.25 43.382812 C 79.09375 41.5625 78.210938 40.617188 76.605469 40.53125 C 78.210938 40.449219 79.09375 39.5 79.25 37.679688 L 79.25 37.359375 L 79.261719 37.554688 L 79.269531 37.359375 Z M 79.269531 37.679688 " fill-opacity="1" fill-rule="evenodd"/><path fill="#ffffff" d="M 85.964844 63.886719 C 86.121094 65.707031 87 66.652344 88.609375 66.738281 C 87 66.820312 86.121094 67.769531 85.964844 69.589844 L 85.964844 69.914062 L 85.953125 69.722656 L 85.9375 69.914062 L 85.9375 69.589844 C 85.78125 67.769531 84.902344 66.828125 83.292969 66.738281 C 84.902344 66.65625 85.78125 65.707031 85.9375 63.886719 L 85.9375 63.570312 L 85.953125 63.761719 L 85.964844 63.570312 Z M 85.964844 63.886719 " fill-opacity="1" fill-rule="evenodd"/></svg>